<svg width="50" height="50" viewBox="0 0 50 50" fill="none" xmlns="http://www.w3.org/2000/svg">
<g clip-path="url(#clip0_18_1146)">
<path d="M10.95 0H39.05C45.0977 0 50 4.90234 50 10.95V39.05C50 45.0977 45.0977 50 39.05 50H10.95C4.90234 50 0 45.0977 0 39.05V10.95C0 4.90234 4.90234 0 10.95 0Z" fill="url(#paint0_linear_18_1146)"/>
<path d="M16.0234 36.2911L16.0281 36.2926L14.3186 39.2536C13.6945 40.3344 12.3125 40.7048 11.2316 40.0807C10.1508 39.4567 9.78047 38.0747 10.4045 36.9938L11.6639 34.8126L11.7848 34.6032C12.0006 34.293 12.5332 33.7575 13.5986 33.8583C13.5986 33.8583 16.1059 34.1303 16.2873 35.4335C16.2873 35.4335 16.3119 35.8622 16.0234 36.2911ZM40.2701 28.7286H34.9393C34.5762 28.7042 34.4178 28.5745 34.3553 28.4991L34.3514 28.4923L28.6449 18.6083L28.6375 18.6132L28.2953 18.1225C27.7344 17.2647 26.8438 19.4585 26.8438 19.4585C25.7803 21.903 26.9947 24.6821 27.418 25.5221L35.3441 39.2507C35.968 40.3313 37.35 40.7018 38.4311 40.0776C39.5117 39.4536 39.8822 38.0716 39.258 36.9907L37.2762 33.5579C37.2377 33.4747 37.1709 33.2489 37.5773 33.2479H40.2701C41.5182 33.2479 42.5299 32.2362 42.5299 30.9882C42.5299 29.7401 41.5182 28.7286 40.2701 28.7286ZM29.9158 31.8003C29.9158 31.8003 30.2004 33.2477 29.0994 33.2477H9.39258C8.14453 33.2477 7.13281 32.236 7.13281 30.988C7.13281 29.7399 8.14453 28.7282 9.39258 28.7282H14.459C15.277 28.6809 15.4707 28.2087 15.4707 28.2087L15.4754 28.211L22.0887 16.7563L22.0867 16.7559C22.2072 16.5346 22.1068 16.3255 22.0895 16.2925L19.9053 12.5094C19.2813 11.4288 19.6516 10.0466 20.7324 9.42273C21.8133 8.7989 23.1953 9.16882 23.8193 10.2497L24.8322 12.0042L25.8434 10.2528C26.4674 9.17214 27.8494 8.80163 28.9303 9.42585C30.0111 10.0501 30.3814 11.4317 29.7574 12.5126L20.5547 28.452C20.5145 28.5491 20.5021 28.7014 20.8016 28.7282H26.3023L26.3035 28.7819C26.3035 28.7819 29.4828 28.8313 29.9158 31.8003Z" fill="white"/>
</g>
<defs>
<linearGradient id="paint0_linear_18_1146" x1="2500" y1="0" x2="2500" y2="5000" gradientUnits="userSpaceOnUse">
<stop stop-color="#17C9FB"/>
<stop offset="1" stop-color="#1A74E8"/>
</linearGradient>
<clipPath id="clip0_18_1146">
<rect width="50" height="50" fill="white"/>
</clipPath>
</defs>
</svg>
