<svg width="50" height="50" viewBox="0 0 50 50" fill="none" xmlns="http://www.w3.org/2000/svg">
<g clip-path="url(#clip0_18_1137)">
<path d="M23.3502 23.8367L0.207031 45.7704C0.466927 46.6036 0.933967 47.3719 1.57245 48.0168C2.21093 48.6617 3.00396 49.1659 3.8909 49.4911C4.77784 49.8162 5.73521 49.9536 6.68984 49.8927C7.64447 49.8318 8.57108 49.5743 9.39883 49.1398L35.4393 35.7239L23.3502 23.8367Z" fill="#EA4335"/>
<path d="M46.7516 20.1086L35.4908 14.2739L22.8154 24.3358L35.5424 35.6927L46.7174 29.9206C47.7074 29.4517 48.5366 28.7466 49.1151 27.8817C49.6937 27.0169 49.9996 26.0253 49.9996 25.0145C49.9996 24.0036 49.6937 23.012 49.1151 22.1472C48.5366 21.2824 47.7074 20.5773 46.7174 20.1084L46.7516 20.1086Z" fill="#FBBC04"/>
<path d="M0.207092 4.14966C0.0672857 4.61749 -0.00234857 5.1002 6.04228e-05 5.58482V44.3352C0.00144091 44.8196 0.0710108 45.302 0.207092 45.7705L24.1436 24.3984L0.207092 4.14966Z" fill="#4285F4"/>
<path d="M23.5227 24.9601L35.491 14.274L9.48515 0.795594C8.50669 0.277256 7.39385 0.00274305 6.25996 1.08357e-05C3.44609 -0.00493616 0.972265 1.68446 0.207031 4.13411L23.5227 24.9601Z" fill="#34A853"/>
</g>
<defs>
<clipPath id="clip0_18_1137">
<rect width="50" height="50" fill="white"/>
</clipPath>
</defs>
</svg>
